HIERARCHY
ROOT Hips
{
	OFFSET -3.958830 18.904000 13.208200
	CHANNELS 6 Xposition Yposition Zposition Zrotation Yrotation Xrotation 
	JOINT LHipJoint
	{
		OFFSET 0.000000 0.000000 0.000000
		CHANNELS 3 Zrotation Yrotation Xrotation
		JOINT LeftUpLeg
		{
			OFFSET 1.800000 -1.400000 0.085000
			CHANNELS 3 Zrotation Yrotation Xrotation
			JOINT LeftLeg
			{
				OFFSET 2.215000 -6.000000 0.000000
				CHANNELS 3 Zrotation Yrotation Xrotation
				JOINT LeftFoot
				{
					OFFSET 2.500000 -6.900000 0.000000
					CHANNELS 3 Zrotation Yrotation Xrotation
					JOINT LeftToeBase
					{
						OFFSET 0.200000 -0.500000 1.950000
						CHANNELS 3 Zrotation Yrotation Xrotation
						End Site
						{
							OFFSET 0.000000 0.000000 0.000000
						}
					}
				}
			}
		}
	}
	JOINT RHipJoint
	{
		OFFSET 0.000000 0.000000 0.000000
		CHANNELS 3 Zrotation Yrotation Xrotation
		JOINT RightUpLeg
		{
			OFFSET -1.800000 -1.400000 0.085000
			CHANNELS 3 Zrotation Yrotation Xrotation
			JOINT RightLeg
			{
				OFFSET -2.215000 -6.000000 0.000000
				CHANNELS 3 Zrotation Yrotation Xrotation
				JOINT RightFoot
				{
					OFFSET -2.500000 -6.900000 0.000000
					CHANNELS 3 Zrotation Yrotation Xrotation
					JOINT RightToeBase
					{
						OFFSET -0.200000 -0.500000 1.950000
						CHANNELS 3 Zrotation Yrotation Xrotation
						End Site
						{
							OFFSET 0.000000 0.000000 0.000000
						}
					}
				}
			}
		}
	}
	JOINT LowerBack
	{
		OFFSET 0.000000 0.000000 0.000000
		CHANNELS 3 Zrotation Yrotation Xrotation
		JOINT Spine
		{
			OFFSET -0.087000 1.940000 -0.288900
			CHANNELS 3 Zrotation Yrotation Xrotation
			JOINT Spine1
			{
				OFFSET 0.000000 1.950000 0.060000
				CHANNELS 3 Zrotation Yrotation Xrotation
				JOINT Neck
				{
					OFFSET 0.000000 0.000000 0.000000
					CHANNELS 3 Zrotation Yrotation Xrotation
					JOINT Neck1
					{
						OFFSET 0.000000 1.600000 0.340000
						CHANNELS 3 Zrotation Yrotation Xrotation
						JOINT Head
						{
							OFFSET 0.000000 1.667000 -0.240000
							CHANNELS 3 Zrotation Yrotation Xrotation
							End Site
							{
								OFFSET 0.000000 0.000000 0.000000
							}
						}
					}
				}
				JOINT LeftShoulder
				{
					OFFSET 0.000000 0.000000 0.000000
					CHANNELS 3 Zrotation Yrotation Xrotation
					JOINT LeftArm
					{
						OFFSET 2.700000 1.550000 -0.730000
						CHANNELS 3 Zrotation Yrotation Xrotation
						JOINT LeftForeArm
						{
							OFFSET 5.450000 0.000000 0.000000
							CHANNELS 3 Zrotation Yrotation Xrotation
							JOINT LeftHand
							{
								OFFSET 3.450000 0.000000 0.000000
								CHANNELS 3 Zrotation Yrotation Xrotation
								JOINT LeftHandIndex1
								{
									OFFSET 0.750000 0.000000 0.000000
									CHANNELS 3 Zrotation Yrotation Xrotation
									End Site
									{
										OFFSET 0.000000 0.000000 0.000000
									}
								}
							}
						}
					}
				}
				JOINT RightShoulder
				{
					OFFSET 0.000000 0.000000 0.000000
					CHANNELS 3 Zrotation Yrotation Xrotation
					JOINT RightArm
					{
						OFFSET -2.700000 1.550000 -0.730000
						CHANNELS 3 Zrotation Yrotation Xrotation
						JOINT RightForeArm
						{
							OFFSET -5.450000 0.000000 0.000000
							CHANNELS 3 Zrotation Yrotation Xrotation
							JOINT RightHand
							{
								OFFSET -3.450000 0.000000 0.000000
								CHANNELS 3 Zrotation Yrotation Xrotation
								JOINT RightHandIndex1
								{
									OFFSET -0.750000 0.000000 0.000000
									CHANNELS 3 Zrotation Yrotation Xrotation
									End Site
									{
										OFFSET 0.000000 0.000000 0.000000
									}
								}
							}
						}
					}
				}
			}
		}
	}
}
MOTION
Frames: 7
Frame Time: 0.016667
1.997840 17.317870 -3.878850 5.839010 18.088097 -18.049429 -15.381212 13.330889 2.915983 0.876934 -0.552830 8.896035 -6.528250 11.426893 36.280418 0.741014 8.427315 1.756246 0.488640 0.437710 0.223440 18.203745 -10.577284 2.614569 -1.794764 0.229997 -14.658210 5.631740 -3.570355 8.097406 0.004181 -2.773307 3.384289 0.424270 0.179090 0.101080 -3.537997 -1.955437 -7.246776 7.889599 -2.891851 12.683477 0.696842 -3.335708 21.907861 2.057826 -0.879716 -6.722223 -7.429330 -2.210183 58.884925 -1.411530 -8.915380 -2.650650 7.829671 -33.148831 -0.774362 -23.041635 -57.225208 22.771485 70.954988 -72.770760 -45.932849 -3.160476 1.176080 0.027430 0.137150 -0.080110 0.198260 -9.945045 35.143967 1.630960 8.527268 54.625205 25.741820 -117.037591 65.201073 -91.315403 2.084712 -0.003083 -0.042500 0.229230 -0.090950 0.003030 
1.948310 17.354790 -3.912050 6.086234 20.279908 -18.096599 -15.421618 13.314368 2.894919 1.365814 -0.690308 8.756896 -7.148088 11.599830 35.864917 0.732363 8.464362 1.755601 0.453500 0.394160 0.180210 18.167618 -10.603300 2.560189 -2.597516 -0.078588 -14.291098 5.227303 -3.508646 7.623214 0.025846 -2.819077 3.375504 0.412350 0.218120 0.094020 -3.462232 -1.927077 -7.170961 6.355224 -3.006038 12.896594 0.561082 -2.422193 23.942321 2.006257 -1.520102 -7.118599 -8.267762 -2.087218 57.736766 -0.993830 -9.590990 -2.104870 7.779190 -30.983896 -0.918455 -21.690098 -56.679034 22.323917 77.316714 -70.897723 -49.626429 -3.139501 0.991748 0.011830 0.153080 -0.119080 0.195060 -9.705341 33.867581 3.746359 2.772871 57.353196 20.403122 -111.055180 60.344287 -72.476957 1.806439 0.154379 -0.062000 0.238400 -0.061300 0.012410 
1.896590 17.378870 -3.961880 6.482938 22.894473 -17.705376 -15.442385 13.308686 2.870963 1.566501 -0.740163 7.465012 -7.361222 11.798989 36.472211 0.723113 8.513298 1.735355 0.440220 0.376520 0.168410 18.131888 -10.681329 2.521690 -3.656693 -0.180399 -14.729191 4.815666 -3.466093 7.724692 0.043402 -2.815791 3.373448 0.408190 0.229800 0.092550 -3.448574 -1.787542 -7.157167 5.099196 -2.471983 13.474851 0.011844 -1.571033 24.448461 2.175614 -1.448997 -7.164142 -7.674838 -2.376752 57.304867 -0.904820 -9.583480 -1.906030 7.189447 -30.079176 0.159267 -18.341241 -56.153655 21.697488 87.407747 -68.442954 -56.414621 -3.192226 0.811660 0.009820 0.160180 -0.131300 0.192780 -9.381817 33.024200 3.253641 3.288449 57.684940 19.488793 -108.191642 59.957566 -68.337030 1.750476 0.174583 -0.072090 0.240030 -0.051210 0.010970 
1.866210 17.388340 -4.015410 6.435065 26.094802 -17.159074 -15.429390 13.280007 2.817031 1.804105 -1.016194 5.756607 -7.004065 11.777593 37.675124 0.743409 8.523753 1.728450 0.433410 0.381260 0.153940 18.126555 -10.755000 2.532416 -4.769609 -0.309885 -15.031819 4.810149 -3.399288 7.004448 0.049494 -2.822044 3.380098 0.400640 0.229040 0.081850 -3.570195 -1.587880 -7.190199 5.154291 -2.166481 13.866204 -1.160984 -0.912656 24.004752 2.335203 -1.104190 -7.080945 -7.171058 -3.006998 57.685428 -0.888610 -10.060930 -1.303630 6.018043 -30.327630 0.343951 -18.391130 -56.087632 20.673659 82.963907 -68.263377 -51.935402 -3.187724 1.022267 -0.012100 0.158750 -0.134880 0.201310 -8.645110 32.758586 2.985418 3.472568 56.398509 17.173202 -102.947807 61.540293 -63.568341 1.604719 0.382829 -0.059810 0.234960 -0.061870 0.025670 
1.838330 17.388260 -4.070230 6.374356 28.735667 -16.617189 -15.403468 13.286861 2.766127 2.134360 -0.891779 4.539429 -6.631087 11.648680 37.767114 0.733639 8.426933 1.765539 0.395720 0.328410 0.127860 18.124002 -10.857044 2.541307 -5.842674 -0.382546 -15.729730 4.627872 -3.375275 6.909243 0.076810 -2.809359 3.385459 0.365060 0.243940 0.076090 -3.731312 -1.389304 -7.236574 5.938651 -1.658750 14.388462 -2.122175 -0.016283 23.363632 2.235227 -0.113375 -7.250200 -5.850086 -4.290547 58.244493 -0.402710 -11.077560 0.062690 5.151843 -31.376667 -0.959425 -20.266154 -57.030058 21.373343 74.738153 -71.591944 -46.883071 -3.126904 1.096132 -0.023020 0.161840 -0.153480 0.199250 -7.823454 32.804512 4.586138 1.273390 53.619443 14.059515 -104.201191 61.249884 -65.432637 1.682941 0.305147 -0.064650 0.223910 -0.052230 0.033380 
1.805660 17.380110 -4.117790 6.743143 31.812561 -16.020026 -15.421209 13.304310 2.761267 2.023419 -1.040173 3.771662 -6.073916 11.221146 37.758294 0.700489 8.308164 1.814669 0.364390 0.292320 0.088330 18.080671 -10.967787 2.494581 -7.120335 -0.660461 -16.261353 4.001995 -3.375706 7.288407 0.107108 -2.818848 3.386407 0.348940 0.279530 0.069680 -3.775106 -1.247173 -7.247516 5.530486 -1.235993 14.971949 -3.164285 0.877880 23.432542 2.547568 0.793736 -7.316467 -4.344963 -5.733475 57.719592 0.325300 -12.443190 0.592110 4.551802 -31.602561 -1.493638 -21.274692 -57.860425 22.305456 71.151819 -70.482498 -43.336824 -3.198865 1.307532 -0.035910 0.174330 -0.179680 0.205200 -7.940941 32.189958 5.511628 -2.393114 52.432324 11.541011 -106.872935 60.396537 -67.822410 1.780705 0.150749 -0.077230 0.236420 -0.034440 0.048280 
1.762200 17.389760 -4.177360 6.659680 35.216392 -15.889340 -15.442054 13.349942 2.714622 2.198966 -1.054815 3.418189 -4.978680 10.430722 37.083045 0.613014 8.036387 1.905872 0.376570 0.312880 0.079160 18.031949 -11.100276 2.439089 -8.631136 -1.007941 -16.679288 4.070472 -3.610622 8.388570 0.112368 -2.899828 3.344512 0.372080 0.295150 0.063280 -3.844372 -1.092091 -7.220214 5.246874 -1.183217 15.744159 -4.021571 1.446222 23.733861 2.969902 1.698464 -6.976593 -2.593608 -7.264839 56.769243 1.048970 -13.644340 -0.154820 4.058089 -31.433972 -2.493307 -23.672029 -58.746773 24.724124 70.240039 -71.151872 -42.914401 -3.148374 1.228640 -0.043410 0.175100 -0.187970 0.217400 -8.179893 31.210511 6.148557 -4.385232 51.864026 10.545706 -110.674535 58.808911 -71.307864 1.909799 -0.108245 -0.082750 0.257160 -0.036470 0.059670 
